<svg width="69" height="12" viewBox="0 0 69 12" fill="none" xmlns="http://www.w3.org/2000/svg">
<path d="M10.6415 4.13792L7.66615 3.7055L6.33608 1.00901C6.29975 0.935185 6.23998 0.875419 6.16615 0.839091C5.981 0.747685 5.756 0.823857 5.66342 1.00901L4.33334 3.7055L1.35795 4.13792C1.27592 4.14964 1.20092 4.18831 1.1435 4.2469C1.07408 4.31826 1.03582 4.41425 1.03714 4.51379C1.03846 4.61333 1.07924 4.70828 1.15053 4.77776L3.30326 6.87659L2.79467 9.84026C2.78274 9.9092 2.79037 9.98011 2.81669 10.0449C2.84301 10.1098 2.88697 10.1659 2.94358 10.207C3.00019 10.2481 3.06719 10.2726 3.13697 10.2776C3.20676 10.2825 3.27655 10.2679 3.33842 10.2352L5.99975 8.83597L8.66108 10.2352C8.73373 10.2739 8.81811 10.2867 8.89897 10.2727C9.10287 10.2375 9.23998 10.0442 9.20483 9.84026L8.69623 6.87659L10.849 4.77776C10.9076 4.72034 10.9462 4.64534 10.958 4.56331C10.9896 4.35823 10.8466 4.16839 10.6415 4.13792Z" fill="#FFC416"/>
<path d="M25.6415 4.13792L22.6662 3.7055L21.3361 1.00901C21.2997 0.935185 21.24 0.875419 21.1662 0.839091C20.981 0.747685 20.756 0.823857 20.6634 1.00901L19.3333 3.7055L16.358 4.13792C16.2759 4.14964 16.2009 4.18831 16.1435 4.2469C16.0741 4.31826 16.0358 4.41425 16.0371 4.51379C16.0385 4.61333 16.0792 4.70828 16.1505 4.77776L18.3033 6.87659L17.7947 9.84026C17.7827 9.9092 17.7904 9.98011 17.8167 10.0449C17.843 10.1098 17.887 10.1659 17.9436 10.207C18.0002 10.2481 18.0672 10.2726 18.137 10.2776C18.2068 10.2825 18.2765 10.2679 18.3384 10.2352L20.9997 8.83597L23.6611 10.2352C23.7337 10.2739 23.8181 10.2867 23.899 10.2727C24.1029 10.2375 24.24 10.0442 24.2048 9.84026L23.6962 6.87659L25.849 4.77776C25.9076 4.72034 25.9462 4.64534 25.958 4.56331C25.9896 4.35823 25.8466 4.16839 25.6415 4.13792Z" fill="#FFC416"/>
<path d="M39.6415 4.13792L36.6662 3.7055L35.3361 1.00901C35.2997 0.935185 35.24 0.875419 35.1662 0.839091C34.981 0.747685 34.756 0.823857 34.6634 1.00901L33.3333 3.7055L30.358 4.13792C30.2759 4.14964 30.2009 4.18831 30.1435 4.2469C30.0741 4.31826 30.0358 4.41425 30.0371 4.51379C30.0385 4.61333 30.0792 4.70828 30.1505 4.77776L32.3033 6.87659L31.7947 9.84026C31.7827 9.9092 31.7904 9.98011 31.8167 10.0449C31.843 10.1098 31.887 10.1659 31.9436 10.207C32.0002 10.2481 32.0672 10.2726 32.137 10.2776C32.2068 10.2825 32.2765 10.2679 32.3384 10.2352L34.9997 8.83597L37.6611 10.2352C37.7337 10.2739 37.8181 10.2867 37.899 10.2727C38.1029 10.2375 38.24 10.0442 38.2048 9.84026L37.6962 6.87659L39.849 4.77776C39.9076 4.72034 39.9462 4.64534 39.958 4.56331C39.9896 4.35823 39.8466 4.16839 39.6415 4.13792Z" fill="#FFC416"/>
<path d="M53.6415 4.13792L50.6662 3.7055L49.3361 1.00901C49.2997 0.935185 49.24 0.875419 49.1662 0.839091C48.981 0.747685 48.756 0.823857 48.6634 1.00901L47.3333 3.7055L44.358 4.13792C44.2759 4.14964 44.2009 4.18831 44.1435 4.2469C44.0741 4.31826 44.0358 4.41425 44.0371 4.51379C44.0385 4.61333 44.0792 4.70828 44.1505 4.77776L46.3033 6.87659L45.7947 9.84026C45.7827 9.9092 45.7904 9.98011 45.8167 10.0449C45.843 10.1098 45.887 10.1659 45.9436 10.207C46.0002 10.2481 46.0672 10.2726 46.137 10.2776C46.2068 10.2825 46.2765 10.2679 46.3384 10.2352L48.9997 8.83597L51.6611 10.2352C51.7337 10.2739 51.8181 10.2867 51.899 10.2727C52.1029 10.2375 52.24 10.0442 52.2048 9.84026L51.6962 6.87659L53.849 4.77776C53.9076 4.72034 53.9462 4.64534 53.958 4.56331C53.9896 4.35823 53.8466 4.16839 53.6415 4.13792Z" fill="#FFC416"/>
<path d="M67.6415 4.13792L64.6662 3.7055L63.3361 1.00901C63.2997 0.935185 63.24 0.875419 63.1662 0.839091C62.981 0.747685 62.756 0.823857 62.6634 1.00901L61.3333 3.7055L58.358 4.13792C58.2759 4.14964 58.2009 4.18831 58.1435 4.2469C58.0741 4.31826 58.0358 4.41425 58.0371 4.51379C58.0385 4.61333 58.0792 4.70828 58.1505 4.77776L60.3033 6.87659L59.7947 9.84026C59.7827 9.9092 59.7904 9.98011 59.8167 10.0449C59.843 10.1098 59.887 10.1659 59.9436 10.207C60.0002 10.2481 60.0672 10.2726 60.137 10.2776C60.2068 10.2825 60.2765 10.2679 60.3384 10.2352L62.9997 8.83597L65.6611 10.2352C65.7337 10.2739 65.8181 10.2867 65.899 10.2727C66.1029 10.2375 66.24 10.0442 66.2048 9.84026L65.6962 6.87659L67.849 4.77776C67.9076 4.72034 67.9462 4.64534 67.958 4.56331C67.9896 4.35823 67.8466 4.16839 67.6415 4.13792Z" fill="#FFC416"/>
</svg>
