<svg width="14" height="14" viewBox="0 0 14 14" fill="none" xmlns="http://www.w3.org/2000/svg">
<path d="M12.4399 2.07329C11.7321 1.3653 10.7937 0.934841 9.79534 0.860211C8.79701 0.785581 7.80505 1.07173 6.99986 1.66662C6.15163 1.03572 5.09585 0.749631 4.04514 0.865982C2.99442 0.982333 2.02682 1.49248 1.33717 2.29368C0.647529 3.09488 0.287073 4.12764 0.328392 5.18397C0.369711 6.2403 0.809737 7.24174 1.55986 7.98662L6.52652 12.9533C6.5885 13.0158 6.66223 13.0654 6.74347 13.0992C6.82471 13.1331 6.91185 13.1505 6.99986 13.1505C7.08787 13.1505 7.175 13.1331 7.25624 13.0992C7.33748 13.0654 7.41122 13.0158 7.47319 12.9533L12.4399 7.98662C12.8283 7.59844 13.1364 7.13752 13.3467 6.6302C13.5569 6.12288 13.6651 5.57911 13.6651 5.02996C13.6651 4.4808 13.5569 3.93703 13.3467 3.42971C13.1364 2.92239 12.8283 2.46147 12.4399 2.07329ZM11.4999 7.04662L6.99986 11.54L2.49986 7.04662C2.10331 6.64842 1.83317 6.14199 1.72334 5.59085C1.61351 5.03971 1.66888 4.46841 1.88249 3.94862C2.09611 3.42883 2.45846 2.98369 2.92409 2.66904C3.38972 2.35439 3.9379 2.18425 4.49986 2.17996C5.2506 2.1818 5.96992 2.48151 6.49986 3.01329C6.56183 3.07578 6.63557 3.12537 6.71681 3.15922C6.79805 3.19306 6.88518 3.21049 6.97319 3.21049C7.0612 3.21049 7.14834 3.19306 7.22958 3.15922C7.31082 3.12537 7.38455 3.07578 7.44652 3.01329C7.99207 2.54055 8.69685 2.29272 9.41822 2.31997C10.1396 2.34723 10.8237 2.64752 11.332 3.16008C11.8403 3.67264 12.1349 4.35918 12.1562 5.08075C12.1774 5.80232 11.9238 6.50502 11.4465 7.04662H11.4999Z" fill="white"/>
</svg>
